<svg xmlns="http://www.w3.org/2000/svg" width="110.003" height="30.61" viewBox="0 0 110.003 30.61">
  <g id="logo" transform="translate(-55 -129)">
    <path id="Path_516" data-name="Path 516" d="M70.3,159.61a15.3,15.3,0,1,1,15.3-15.3A15.3,15.3,0,0,1,70.3,159.61Zm0-29.891a14.587,14.587,0,1,0,14.587,14.587A14.587,14.587,0,0,0,70.3,129.719Z" transform="translate(0)" fill="#111"/>
    <path id="Path_517" data-name="Path 517" d="M101.84,196.347v.741a.357.357,0,1,0,.714,0v-.741a.357.357,0,1,0-.714,0Z" transform="translate(-39.373 -56.31)" fill="#111"/>
    <path id="Path_518" data-name="Path 518" d="M101.242,174.583a2.771,2.771,0,0,0,0-3.914.357.357,0,0,0-.252-.105h0a.356.356,0,0,0-.253.108,26.445,26.445,0,0,1-3.622,2.87l-.075.051c-.371.253-.628.419-.681.453h0l-.013.01c-1.008.681-3.528,1.94-3.55,1.95a12.812,12.812,0,0,0-1.723,1.011A22.708,22.708,0,0,0,90.023,175c-.113-.2-.22-.391-.319-.569a4.645,4.645,0,0,0-1.692-1.974,2.358,2.358,0,0,1-.877-.915c-.847-1.454-1.57-1.72-1.644-1.738a.359.359,0,0,0-.3.041.365.365,0,0,0-.159.258,4.185,4.185,0,0,1-.44,1.5c-.056.08-.274.12-.505.159a3.064,3.064,0,0,0-2.16,1.285,12.955,12.955,0,0,0-.773,1.213c-.384.666-.493.824-.949.861-.341.029-.7.3-.687.99a3.893,3.893,0,0,0,3.609,3.507c.622.024,1.006.159,1.082.391.159.493-.7,1.583-1.4,2.149a.358.358,0,0,0,.451.555c.569-.462,1.974-1.892,1.626-2.93-.182-.547-.765-.842-1.733-.88a3.132,3.132,0,0,1-2.731-2.01,1.556,1.556,0,0,1-.159-1.051c.847-.07,1.126-.55,1.51-1.216a12.3,12.3,0,0,1,.733-1.151,2.329,2.329,0,0,1,1.712-1,1.328,1.328,0,0,0,.957-.456,3.688,3.688,0,0,0,.478-1.263,4.749,4.749,0,0,1,.859,1.138,3.064,3.064,0,0,0,1.1,1.151,3.978,3.978,0,0,1,1.462,1.722c.1.182.209.375.319.58a21.67,21.67,0,0,1,1.083,2.108c-2.841,2.3-2.736,4.845-2.71,5.118a4.773,4.773,0,0,0,3.442,4.571q-.134.679-.319,1.4l-.182.751a.36.36,0,0,0,.265.432.382.382,0,0,0,.085.01.359.359,0,0,0,.348-.274l.179-.746c.126-.493.233-.969.319-1.435a4.913,4.913,0,0,0,.638.046,4.767,4.767,0,0,0,4.749-4.3,3.578,3.578,0,0,0,2.823-3.479,3.4,3.4,0,0,0-.026-.421,3.145,3.145,0,0,0,1.553-2.725,3.177,3.177,0,0,0-.505-1.717A1.115,1.115,0,0,0,101.242,174.583Zm-1.707,4.03a2.428,2.428,0,0,1-1.068.247.357.357,0,0,0,0,.714H98.6a3.129,3.129,0,0,0,.8-.137v.115a2.86,2.86,0,0,1-2.487,2.83h0a2.508,2.508,0,0,1-.831-.016,2.887,2.887,0,0,1-.883-.3.356.356,0,0,0-.478.147.341.341,0,0,0-.043.169.36.36,0,0,0,.188.319,3.557,3.557,0,0,0,1.1.37,3.384,3.384,0,0,0,.606.053,4.043,4.043,0,0,1-4.521,3.466,4.118,4.118,0,0,1-.7-.148,4.054,4.054,0,0,1-2.855-3.876.235.235,0,0,0,0-.033,5.634,5.634,0,0,1,2.283-4.367,6.675,6.675,0,0,1,.593-.467,11.626,11.626,0,0,1,1.754-1.039c.105-.053,2.575-1.285,3.627-1.994l.024-.016c.072-.046.319-.212.687-.458l.075-.051a30.417,30.417,0,0,0,3.452-2.691,2.058,2.058,0,0,1-.23,2.63,2.088,2.088,0,0,1-.3.246,2.032,2.032,0,0,1-.754.319.357.357,0,0,0-.289.351.334.334,0,0,0,0,.069.356.356,0,0,0,.419.282h.035a2.78,2.78,0,0,0,.686-.241,2.45,2.45,0,0,1-1.006,3.52Z" transform="translate(-20.608 -34.286)" fill="#111"/>
    <path id="Path_519" data-name="Path 519" d="M294.965,187.957v.762h-16.8v-.757Zm-1.075-2.05H279.236v-.757h3.348v-3.882H279.41v-.757h14.3v.757h-3.166v3.882h3.348Zm-13.6,10.114h13.757v.737H279.475v-3.4h13.379V191.44H279.435V190.7h14.235v3.364H280.292Zm3.125-10.871h6.292v-3.882h-6.292Z" transform="translate(-187.583 -43.298)" fill="#111"/>
    <path id="Path_520" data-name="Path 520" d="M411.55,193.172a13.572,13.572,0,0,0,2.418-.218,7.77,7.77,0,0,0,1.982-.6v.776a7.437,7.437,0,0,1-1.951.6,13.645,13.645,0,0,1-2.449.218h-6.71v-8.083h8.343v-6.154H404.8v-.778h9.22v7.707h-8.344v6.536Zm9.954-6.809h-2.688v8.781h-.835v-17h.835v7.447H421.5Z" transform="translate(-294.033 -41.306)" fill="#111"/>
    <path id="Path_521" data-name="Path 521" d="M530.325,178.975a4.116,4.116,0,0,1,1.792,1.484,4.161,4.161,0,0,1,0,4.36,4.113,4.113,0,0,1-1.792,1.483,7.275,7.275,0,0,1-5.5,0,4.112,4.112,0,0,1-1.792-1.483,4.161,4.161,0,0,1,0-4.36,4.116,4.116,0,0,1,1.792-1.484A7.3,7.3,0,0,1,530.325,178.975Zm-5.875,1.116a3.321,3.321,0,0,0,0,5.1,5.8,5.8,0,0,0,6.253,0,3.322,3.322,0,0,0,0-5.1,5.781,5.781,0,0,0-6.248,0Zm11.34,9.119a2.54,2.54,0,0,1,0,4.937,15.517,15.517,0,0,1-10.055,0,2.54,2.54,0,0,1,0-4.937,15.532,15.532,0,0,1,10.06,0Zm-9.428.587q-1.712.647-1.712,1.881t1.712,1.883a12.95,12.95,0,0,0,4.4.647,12.335,12.335,0,0,0,4.4-.647q1.712-.647,1.712-1.883t-1.712-1.881a12.935,12.935,0,0,0-4.4-.647,12.308,12.308,0,0,0-4.4.647Zm11.051-2.219h-.837V178.14h.837Z" transform="translate(-392.902 -41.306)" fill="#111"/>
    <path id="Path_522" data-name="Path 522" d="M649.332,185.5a5.918,5.918,0,0,1-2.468,2.35,7.436,7.436,0,0,1-3.394.776v-.8a6.329,6.329,0,0,0,3.613-1.035,5.082,5.082,0,0,0,2.073-3.086H643.47v-.776h5.853a8.722,8.722,0,0,0,.08-1.255v-2.189H643.47v-.776h6.788v2.965A7.408,7.408,0,0,1,649.332,185.5Zm9.907,9.419-7.713-3.844a8.412,8.412,0,0,1-3.136,2.648,9,9,0,0,1-3.986,1v-.8a8.437,8.437,0,0,0,3.254-.756,7.993,7.993,0,0,0,2.768-2.042,6.582,6.582,0,0,0,1.524-3.115l.835.159a6.534,6.534,0,0,1-.835,2.249l7.707,3.764Zm-5.117-7.308h-.842v-9.377h.837v4.34h3.946V178.11h.835v12.1h-.835v-6.855h-3.941Z" transform="translate(-494.653 -41.281)" fill="#111"/>
  </g>
</svg>
